<mxfile host="app.diagrams.net" modified="2022-02-14T06:26:11.369Z" agent="5.0 (Windows NT 10.0; Win64; x64) AppleWebKit/537.36 (KHTML, like Gecko) Chrome/98.0.4758.82 Safari/537.36" etag="xPAu66gf5LU8w_6UKQEC" version="16.4.5" type="github">
  <diagram id="LEmtDCH_rk8Sx9dJpY-e" name="Page-1">
    <mxGraphModel dx="1422" dy="762" grid="0" gridSize="10" guides="1" tooltips="1" connect="1" arrows="1" fold="1" page="1" pageScale="1" pageWidth="827" pageHeight="1169" math="0" shadow="0">
      <root>
        <mxCell id="0" />
        <mxCell id="1" parent="0" />
        <mxCell id="ZpJ0VBWsio0nk-9sUjNW-1" value="PHY6222" style="rounded=1;whiteSpace=wrap;html=1;" vertex="1" parent="1">
          <mxGeometry x="357" y="358" width="120" height="60" as="geometry" />
        </mxCell>
        <mxCell id="ZpJ0VBWsio0nk-9sUjNW-2" value="按键*2" style="rounded=1;whiteSpace=wrap;html=1;" vertex="1" parent="1">
          <mxGeometry x="577" y="358" width="120" height="60" as="geometry" />
        </mxCell>
        <mxCell id="ZpJ0VBWsio0nk-9sUjNW-3" value="蜂鸣器" style="rounded=1;whiteSpace=wrap;html=1;" vertex="1" parent="1">
          <mxGeometry x="357" y="237" width="120" height="60" as="geometry" />
        </mxCell>
        <mxCell id="ZpJ0VBWsio0nk-9sUjNW-4" value="工作指示灯" style="rounded=1;whiteSpace=wrap;html=1;" vertex="1" parent="1">
          <mxGeometry x="122" y="358" width="120" height="60" as="geometry" />
        </mxCell>
        <mxCell id="ZpJ0VBWsio0nk-9sUjNW-5" value="蓝牙连接状态IO" style="rounded=1;whiteSpace=wrap;html=1;" vertex="1" parent="1">
          <mxGeometry x="224" y="496" width="120" height="60" as="geometry" />
        </mxCell>
        <mxCell id="ZpJ0VBWsio0nk-9sUjNW-6" value="88数码管" style="rounded=1;whiteSpace=wrap;html=1;" vertex="1" parent="1">
          <mxGeometry x="487" y="499" width="120" height="60" as="geometry" />
        </mxCell>
      </root>
    </mxGraphModel>
  </diagram>
</mxfile>
